<svg width="512" height="512" viewBox="0 0 512 512" fill="none" xmlns="http://www.w3.org/2000/svg">
<g clip-path="url(#clip0_126_2)">
<rect width="512" height="512" rx="128" fill="#42CE9F"/>
<path d="M75.96 390.28C71.6933 390.28 69.9867 387.507 70.84 381.96L81.72 288.52C82.5733 283.4 85.56 279.773 90.68 277.64L220.6 232.84C223.16 231.56 223.373 230.28 221.24 229L102.2 184.2C97.5067 182.067 95.5867 178.44 96.44 173.32L107.96 79.88C108.387 76.4667 109.667 74.12 111.8 72.84C113.933 71.1333 116.493 71.1333 119.48 72.84L337.08 176.52C341.347 178.653 343.267 182.28 342.84 187.4L331.96 274.44C331.533 279.56 328.76 283.187 323.64 285.32L81.08 389L75.96 390.28ZM166.745 421C163.758 421 161.625 420.147 160.345 418.44C158.638 416.733 157.998 414.387 158.425 411.4L167.385 341C167.812 338.013 168.878 335.667 170.585 333.96C172.292 332.253 174.638 331.4 177.625 331.4H429.145C432.132 331.4 434.265 332.253 435.545 333.96C437.252 335.667 437.892 338.013 437.465 341L428.505 411.4C428.078 414.387 426.798 416.733 424.665 418.44C422.958 420.147 420.825 421 418.265 421H166.745Z" fill="white"/>
</g>
<defs>
<clipPath id="clip0_126_2">
<rect width="512" height="512" rx="128" fill="white"/>
</clipPath>
</defs>
</svg>
