<svg width="480" height="480" viewBox="0 0 480 480" fill="none" xmlns="http://www.w3.org/2000/svg">
<style>
  .icon-path {
    fill: hsl(160, 100%, 32%);
  }
  @media (prefers-color-scheme: dark) {
    .icon-path {
      fill: hsl(160, 55%, 78%);
    }
  }
</style>
<path class="icon-path" d="M152.635 414.72C149.648 414.72 147.515 413.867 146.235 412.16C144.528 410.453 143.888 408.107 144.315 405.12L153.275 334.72C153.702 331.733 154.768 329.387 156.475 327.68C158.182 325.973 160.528 325.12 163.515 325.12H415.035C418.022 325.12 420.155 325.973 421.435 327.68C423.142 329.387 423.782 331.733 423.355 334.72L414.395 405.12C413.968 408.107 412.688 410.453 410.555 412.16C408.848 413.867 406.715 414.72 404.155 414.72H152.635Z" />
<path class="icon-path" d="M61.8501 384C57.5835 384 55.8768 381.227 56.7301 375.68L67.6101 282.24C68.4635 277.12 71.4501 273.493 76.5701 271.36L206.49 226.56C209.05 225.28 209.263 224 207.13 222.72L88.0901 177.92C83.3968 175.787 81.4768 172.16 82.3302 167.04L93.8502 73.6C94.2768 70.1867 95.5568 67.84 97.6901 66.56C99.8235 64.8534 102.383 64.8534 105.37 66.56L322.97 170.24C327.237 172.373 329.157 176 328.73 181.12L317.85 268.16C317.423 273.28 314.65 276.907 309.53 279.04L66.9701 382.72L61.8501 384Z" />
</svg>
