<svg width="1931" height="507" viewBox="0 0 1931 507" fill="none" xmlns="http://www.w3.org/2000/svg">
<path d="M96.1183 428.88C93.1317 428.88 90.9983 428.026 89.7183 426.32C88.0117 424.613 87.3717 422.266 87.7983 419.28L96.7583 348.88C97.185 345.893 98.2517 343.546 99.9583 341.84C101.665 340.133 104.012 339.28 106.998 339.28H358.518C361.505 339.28 363.638 340.133 364.918 341.84C366.625 343.546 367.265 345.893 366.838 348.88L357.878 419.28C357.452 422.266 356.172 424.613 354.038 426.32C352.332 428.026 350.198 428.88 347.638 428.88H96.1183Z" fill="#1E40AF"/>
<path d="M5.33333 398.16C1.06667 398.16 -0.64 395.387 0.213333 389.84L11.0933 296.4C11.9467 291.28 14.9333 287.653 20.0533 285.52L149.973 240.72C152.533 239.44 152.747 238.16 150.613 236.88L31.5733 192.08C26.88 189.947 24.96 186.32 25.8133 181.2L37.3333 87.76C37.76 84.3466 39.04 82 41.1733 80.7199C43.3067 79.0133 45.8667 79.0133 48.8533 80.7199L266.453 184.4C270.72 186.533 272.64 190.16 272.213 195.28L261.333 282.32C260.907 287.44 258.133 291.067 253.013 293.2L10.4533 396.88L5.33333 398.16Z" fill="#1E40AF"/>
<path d="M1904.35 207.84C1896.5 207.84 1890.04 205.307 1884.97 200.24C1879.91 195.173 1877.37 188.713 1877.37 180.86C1877.37 173.007 1879.91 166.547 1884.97 161.48C1890.04 156.413 1896.5 153.88 1904.35 153.88C1912.21 153.88 1918.54 156.413 1923.35 161.48C1928.42 166.547 1930.95 173.007 1930.95 180.86C1930.95 188.713 1928.42 195.173 1923.35 200.24C1918.29 205.307 1911.95 207.84 1904.35 207.84ZM1887.25 428.62C1885.99 428.62 1884.85 428.24 1883.83 427.48C1883.07 426.467 1882.69 425.327 1882.69 424.06V239C1882.69 237.733 1883.07 236.72 1883.83 235.96C1884.85 234.947 1885.99 234.44 1887.25 234.44H1922.21C1923.48 234.44 1924.49 234.947 1925.25 235.96C1926.27 236.72 1926.77 237.733 1926.77 239V424.06C1926.77 425.327 1926.27 426.467 1925.25 427.48C1924.49 428.24 1923.48 428.62 1922.21 428.62H1887.25Z" fill="#1E40AF"/>
<path d="M1808.51 428.62C1807.24 428.62 1806.1 428.24 1805.09 427.48C1804.33 426.467 1803.95 425.327 1803.95 424.06V167.18C1803.95 165.913 1804.33 164.9 1805.09 164.14C1806.1 163.127 1807.24 162.62 1808.51 162.62H1843.47C1844.74 162.62 1845.75 163.127 1846.51 164.14C1847.52 164.9 1848.03 165.913 1848.03 167.18V424.06C1848.03 425.327 1847.52 426.467 1846.51 427.48C1845.75 428.24 1844.74 428.62 1843.47 428.62H1808.51Z" fill="#1E40AF"/>
<path d="M1709.38 431.66C1688.6 431.66 1672.14 426.087 1659.98 414.94C1648.07 403.793 1642.12 388.72 1642.12 369.72V292.96C1642.12 274.467 1648.07 259.647 1659.98 248.5C1672.14 237.1 1688.6 231.4 1709.38 231.4C1730.15 231.4 1746.62 236.973 1758.78 248.12C1770.94 259.013 1777.02 272.947 1777.02 289.92V295.24C1777.02 296.507 1776.51 297.647 1775.5 298.66C1774.74 299.42 1773.72 299.8 1772.46 299.8L1737.5 301.32C1734.46 301.32 1732.94 299.8 1732.94 296.76V292.96C1732.94 286.627 1730.66 281.18 1726.1 276.62C1721.79 271.807 1716.22 269.4 1709.38 269.4C1702.54 269.4 1696.96 271.933 1692.66 277C1688.35 282.067 1686.2 288.527 1686.2 296.38V366.68C1686.2 374.533 1688.35 380.993 1692.66 386.06C1696.96 391.127 1702.54 393.66 1709.38 393.66C1716.22 393.66 1721.79 391.38 1726.1 386.82C1730.66 382.007 1732.94 376.307 1732.94 369.72V365.92C1732.94 364.653 1733.32 363.64 1734.08 362.88C1735.09 361.867 1736.23 361.36 1737.5 361.36L1772.46 361.74C1773.72 361.74 1774.74 362.247 1775.5 363.26C1776.51 364.02 1777.02 365.033 1777.02 366.3V373.14C1777.02 390.62 1770.94 404.807 1758.78 415.7C1746.62 426.34 1730.15 431.66 1709.38 431.66Z" fill="#1E40AF"/>
<path d="M1518.92 333.24C1517.66 333.24 1516.52 332.86 1515.5 332.1C1514.74 331.087 1514.36 329.947 1514.36 328.68V299.8C1514.36 298.533 1514.74 297.52 1515.5 296.76C1516.52 295.747 1517.66 295.24 1518.92 295.24H1612.78C1614.05 295.24 1615.06 295.747 1615.82 296.76C1616.84 297.52 1617.34 298.533 1617.34 299.8V328.68C1617.34 329.947 1616.84 331.087 1615.82 332.1C1615.06 332.86 1614.05 333.24 1612.78 333.24H1518.92Z" fill="#1E40AF"/>
<path d="M1444.95 239C1444.95 237.733 1445.33 236.72 1446.09 235.96C1447.1 234.947 1448.24 234.44 1449.51 234.44H1484.47C1485.74 234.44 1486.75 234.947 1487.51 235.96C1488.52 236.72 1489.03 237.733 1489.03 239V421.4C1489.03 448.76 1482.82 469.787 1470.41 484.48C1458 499.427 1435.83 506.9 1403.91 506.9C1398.34 506.9 1394.16 506.773 1391.37 506.52C1388.33 506.267 1386.81 504.62 1386.81 501.58V472.32C1386.81 469.027 1388.46 467.633 1391.75 468.14C1406.19 468.393 1417.21 466.62 1424.81 462.82C1432.66 459.02 1437.98 453.447 1440.77 446.1C1443.56 438.753 1444.95 429.127 1444.95 417.22V413.04C1444.95 412.28 1444.7 411.9 1444.19 411.9C1443.68 411.647 1443.18 411.9 1442.67 412.66C1434.31 423.553 1422.4 429 1406.95 429C1389.98 429 1377.06 423.553 1368.19 412.66C1359.32 401.513 1354.89 386.44 1354.89 367.44V292.96C1354.89 273.453 1359.32 258.38 1368.19 247.74C1377.31 236.847 1390.23 231.4 1406.95 231.4C1422.4 231.4 1434.31 236.847 1442.67 247.74C1443.18 248.5 1443.68 248.88 1444.19 248.88C1444.7 248.627 1444.95 248.12 1444.95 247.36V239ZM1422.15 391C1428.99 391 1434.44 388.593 1438.49 383.78C1442.8 378.713 1444.95 372.253 1444.95 364.4V296.38C1444.95 288.273 1442.8 281.813 1438.49 277C1434.44 271.933 1428.99 269.4 1422.15 269.4C1415.31 269.4 1409.74 271.933 1405.43 277C1401.12 282.067 1398.97 288.527 1398.97 296.38V364.4C1398.97 372.253 1401.12 378.713 1405.43 383.78C1409.74 388.593 1415.31 391 1422.15 391Z" fill="#1E40AF"/>
<path d="M1258.51 431.66C1237.48 431.66 1220.89 426.087 1208.73 414.94C1196.82 403.793 1190.87 388.72 1190.87 369.72V293.34C1190.87 274.593 1196.95 259.647 1209.11 248.5C1221.27 237.1 1237.73 231.4 1258.51 231.4C1279.53 231.4 1296.13 237.1 1308.29 248.5C1320.45 259.647 1326.53 274.593 1326.53 293.34V369.72C1326.53 388.72 1320.45 403.793 1308.29 414.94C1296.38 426.087 1279.79 431.66 1258.51 431.66ZM1258.51 393.28C1265.6 393.28 1271.3 390.873 1275.61 386.06C1280.17 380.993 1282.45 374.407 1282.45 366.3V296.38C1282.45 288.527 1280.17 282.067 1275.61 277C1271.3 271.933 1265.6 269.4 1258.51 269.4C1251.41 269.4 1245.71 271.933 1241.41 277C1237.1 281.813 1234.95 288.273 1234.95 296.38V366.3C1234.95 374.407 1237.1 380.993 1241.41 386.06C1245.71 390.873 1251.41 393.28 1258.51 393.28Z" fill="#1E40AF"/>
<path d="M1121.24 428.62C1119.98 428.62 1118.84 428.24 1117.82 427.48C1117.06 426.467 1116.68 425.327 1116.68 424.06V167.18C1116.68 165.913 1117.06 164.9 1117.82 164.14C1118.84 163.127 1119.98 162.62 1121.24 162.62H1156.2C1157.47 162.62 1158.48 163.127 1159.24 164.14C1160.26 164.9 1160.76 165.913 1160.76 167.18V424.06C1160.76 425.327 1160.26 426.467 1159.24 427.48C1158.48 428.24 1157.47 428.62 1156.2 428.62H1121.24Z" fill="#1E40AF"/>
<path d="M958.37 428.62C957.104 428.62 955.964 428.24 954.95 427.48C954.19 426.467 953.81 425.327 953.81 424.06V167.18C953.81 165.913 954.19 164.9 954.95 164.14C955.964 163.127 957.104 162.62 958.37 162.62H993.33C994.597 162.62 995.61 163.127 996.37 164.14C997.384 164.9 997.89 165.913 997.89 167.18V302.46C997.89 303.473 998.144 303.98 998.65 303.98C999.157 303.98 999.664 303.6 1000.17 302.84L1041.59 237.48C1042.6 235.453 1044.38 234.44 1046.91 234.44H1083.39C1085.16 234.44 1086.3 235.073 1086.81 236.34C1087.32 237.353 1087.06 238.62 1086.05 240.14L1046.53 299.8C1046.02 300.813 1045.9 301.7 1046.15 302.46L1091.75 423.3C1092 423.807 1092.13 424.44 1092.13 425.2C1092.13 427.48 1090.74 428.62 1087.95 428.62H1051.85C1049.32 428.62 1047.67 427.353 1046.91 424.82L1018.79 338.94C1018.54 338.18 1018.16 337.8 1017.65 337.8C1017.14 337.547 1016.76 337.8 1016.51 338.56L998.65 365.16C998.144 366.173 997.89 366.933 997.89 367.44V424.06C997.89 425.327 997.384 426.467 996.37 427.48C995.61 428.24 994.597 428.62 993.33 428.62H958.37Z" fill="#1E40AF"/>
<path d="M857.718 431.66C836.945 431.66 820.478 426.087 808.318 414.94C796.411 403.793 790.458 388.72 790.458 369.72V292.96C790.458 274.467 796.411 259.647 808.318 248.5C820.478 237.1 836.945 231.4 857.718 231.4C878.491 231.4 894.958 236.973 907.118 248.12C919.278 259.013 925.358 272.947 925.358 289.92V295.24C925.358 296.507 924.851 297.647 923.838 298.66C923.078 299.42 922.065 299.8 920.798 299.8L885.838 301.32C882.798 301.32 881.278 299.8 881.278 296.76V292.96C881.278 286.627 878.998 281.18 874.438 276.62C870.131 271.807 864.558 269.4 857.718 269.4C850.878 269.4 845.305 271.933 840.998 277C836.691 282.067 834.538 288.527 834.538 296.38V366.68C834.538 374.533 836.691 380.993 840.998 386.06C845.305 391.127 850.878 393.66 857.718 393.66C864.558 393.66 870.131 391.38 874.438 386.82C878.998 382.007 881.278 376.307 881.278 369.72V365.92C881.278 364.653 881.658 363.64 882.418 362.88C883.431 361.867 884.571 361.36 885.838 361.36L920.798 361.74C922.065 361.74 923.078 362.247 923.838 363.26C924.851 364.02 925.358 365.033 925.358 366.3V373.14C925.358 390.62 919.278 404.807 907.118 415.7C894.958 426.34 878.491 431.66 857.718 431.66Z" fill="#1E40AF"/>
<path d="M694.852 231.4C714.866 231.4 731.079 237.227 743.492 248.88C755.906 260.533 762.112 275.86 762.112 294.86V424.06C762.112 425.327 761.606 426.467 760.592 427.48C759.832 428.24 758.819 428.62 757.552 428.62H722.592C721.326 428.62 720.186 428.24 719.172 427.48C718.412 426.467 718.032 425.327 718.032 424.06V416.84C718.032 416.08 717.779 415.573 717.272 415.32C716.766 415.067 716.259 415.32 715.752 416.08C706.886 426.467 693.966 431.66 676.992 431.66C662.552 431.66 649.759 427.607 638.612 419.5C627.719 411.14 622.272 396.067 622.272 374.28C622.272 351.48 628.859 335.267 642.032 325.64C655.459 316.013 673.572 311.2 696.372 311.2H716.132C717.399 311.2 718.032 310.567 718.032 309.3V299.42C718.032 290.3 715.752 283.08 711.192 277.76C706.632 272.187 700.932 269.4 694.092 269.4C688.772 269.4 684.339 271.173 680.792 274.72C677.246 278.013 675.092 282.573 674.332 288.4C674.079 291.44 672.432 292.96 669.392 292.96H632.532C629.492 292.96 628.099 291.44 628.352 288.4C629.619 271.173 636.332 257.367 648.492 246.98C660.906 236.593 676.359 231.4 694.852 231.4ZM689.152 395.18C696.752 395.18 703.466 392.773 709.292 387.96C715.119 383.147 718.032 376.433 718.032 367.82V346.16C718.032 344.893 717.399 344.26 716.132 344.26H696.372C687.759 344.26 680.792 346.667 675.472 351.48C670.152 356.04 667.492 362.753 667.492 371.62C667.492 379.473 669.519 385.427 673.572 389.48C677.626 393.28 682.819 395.18 689.152 395.18Z" fill="#1E40AF"/>
<path d="M543.413 231.4C560.133 231.4 573.18 236.847 582.553 247.74C592.18 258.633 596.993 273.707 596.993 292.96V370.1C596.993 388.847 592.307 403.793 582.933 414.94C573.56 426.087 560.387 431.66 543.413 431.66C529.733 431.66 518.333 427.227 509.213 418.36C508.707 417.853 508.2 417.727 507.693 417.98C507.187 418.233 506.933 418.74 506.933 419.5V424.06C506.933 425.327 506.427 426.467 505.413 427.48C504.653 428.24 503.64 428.62 502.373 428.62H467.413C466.147 428.62 465.007 428.24 463.993 427.48C463.233 426.467 462.853 425.327 462.853 424.06V167.18C462.853 165.913 463.233 164.9 463.993 164.14C465.007 163.127 466.147 162.62 467.413 162.62H502.373C503.64 162.62 504.653 163.127 505.413 164.14C506.427 164.9 506.933 165.913 506.933 167.18V243.94C506.933 244.7 507.187 245.207 507.693 245.46C508.453 245.46 509.213 244.953 509.973 243.94C514.787 239.633 520.107 236.467 525.933 234.44C532.013 232.413 537.84 231.4 543.413 231.4ZM553.293 296.38C553.293 288.273 551.14 281.813 546.833 277C542.527 271.933 536.827 269.4 529.733 269.4C523.653 269.4 518.587 271.427 514.533 275.48C510.48 279.28 507.947 284.473 506.933 291.06V372C507.947 378.587 510.48 383.907 514.533 387.96C518.587 391.76 523.653 393.66 529.733 393.66C536.827 393.66 542.527 391.253 546.833 386.44C551.14 381.373 553.293 374.787 553.293 366.68V296.38Z" fill="#1E40AF"/>
</svg>
